<svg xmlns="http://www.w3.org/2000/svg" viewBox="0 0 640 400" width="640" height="400" role="img">
<rect width="640" height="400" rx="18" fill="#f8fafc"/>
<text x="32" y="52" font-family="Helvetica Neue, Helvetica, Arial, sans-serif" font-size="22" font-weight="800" fill="#2563eb" text-anchor="start" letter-spacing="1">ARCLINE MOTORS</text>
<text x="32" y="108" font-family="Helvetica Neue, Helvetica, Arial, sans-serif" font-size="30" font-weight="800" fill="#0f172a" text-anchor="start" >2027 Volt S</text>
<text x="32" y="146" font-family="Helvetica Neue, Helvetica, Arial, sans-serif" font-size="30" font-weight="800" fill="#0f172a" text-anchor="start" >Lease for just</text>
<text x="32" y="218" font-family="Helvetica Neue, Helvetica, Arial, sans-serif" font-size="62" font-weight="900" fill="#2563eb" text-anchor="start" >$199/mo*</text>
<text x="32" y="248" font-family="Helvetica Neue, Helvetica, Arial, sans-serif" font-size="16" font-weight="600" fill="#0f172a" text-anchor="start" >Visit your Arcline dealer today.</text>
<g transform="translate(395 120)"><path d="M10 80 L30 40 Q40 22 70 20 L150 20 Q175 22 190 45 L215 55 Q228 60 228 75 L228 92 L10 92 Z" fill="#334155"/><path d="M48 44 L64 28 L110 28 L110 44 Z M120 28 L150 28 Q165 30 176 44 L120 44 Z" fill="#cbd5e1"/><circle cx="58" cy="94" r="20" fill="#0f172a"/><circle cx="58" cy="94" r="8" fill="#94a3b8"/><circle cx="182" cy="94" r="20" fill="#0f172a"/><circle cx="182" cy="94" r="8" fill="#94a3b8"/></g>
<rect x="0" y="322" width="640" height="78" fill="#000" fill-opacity="0.06"/>
<text x="32" y="342" font-family="Helvetica Neue, Helvetica, Arial, sans-serif" font-size="10.5" font-weight="400" fill="#0f172a" text-anchor="start" fill-opacity="0.72">*36-month lease. $3,999 due at signing. 10,000 miles per year; $0.25 per mile over. Excludes taxes, title,</text>
<text x="32" y="356" font-family="Helvetica Neue, Helvetica, Arial, sans-serif" font-size="10.5" font-weight="400" fill="#0f172a" text-anchor="start" fill-opacity="0.72">registration, and dealer fees. Subject to credit approval. Lessee responsible for excess wear.</text>
<text x="32" y="370" font-family="Helvetica Neue, Helvetica, Arial, sans-serif" font-size="10.5" font-weight="400" fill="#0f172a" text-anchor="start" fill-opacity="0.72">Offer ends 11/30.</text>
<text x="624" y="20" font-family="Helvetica Neue, Helvetica, Arial, sans-serif" font-size="9" font-weight="700" fill="#0f172a" text-anchor="end" fill-opacity="0.45" letter-spacing="0.5">MOCK AD · FICTIONAL BRAND</text>
</svg>
